<?xml version="1.0" encoding="UTF-8"?>
<svg width="10px" height="10px" viewBox="0 0 10 10" version="1.1" xmlns="http://www.w3.org/2000/svg" xmlns:xlink="http://www.w3.org/1999/xlink">
    <!-- Generator: Sketch 55.2 (78181) - https://sketchapp.com -->
    <title>Combined Shape</title>
    <desc>Created with Sketch.</desc>
    <g id="OutilDeVisualisation_FINAL" stroke="none" stroke-width="1" fill="none" fill-rule="evenodd">
        <g id="SkillCorner_Produit_TailleMax_Menu" transform="translate(-341.000000, -138.000000)" fill="#42B760">
            <path d="M341.25,142.444444 L342.568182,142.444444 C342.706253,142.444444 342.818182,142.556373 342.818182,142.694444 L342.818182,147.75 C342.818182,147.888071 342.706253,148 342.568182,148 L341.25,148 C341.111929,148 341,147.888071 341,147.75 L341,142.694444 C341,142.556373 341.111929,142.444444 341.25,142.444444 Z M343.977273,138 L345.295455,138 C345.433526,138 345.545455,138.111929 345.545455,138.25 L345.545455,147.75 C345.545455,147.888071 345.433526,148 345.295455,148 L343.977273,148 C343.839202,148 343.727273,147.888071 343.727273,147.75 L343.727273,138.25 C343.727273,138.111929 343.839202,138 343.977273,138 Z M346.704545,140.222222 L348.022727,140.222222 C348.160798,140.222222 348.272727,140.334151 348.272727,140.472222 L348.272727,147.75 C348.272727,147.888071 348.160798,148 348.022727,148 L346.704545,148 C346.566474,148 346.454545,147.888071 346.454545,147.75 L346.454545,140.472222 C346.454545,140.334151 346.566474,140.222222 346.704545,140.222222 Z M349.431818,143.555556 L350.75,143.555556 C350.888071,143.555556 351,143.667484 351,143.805556 L351,147.75 C351,147.888071 350.888071,148 350.75,148 L349.431818,148 C349.293747,148 349.181818,147.888071 349.181818,147.75 L349.181818,143.805556 C349.181818,143.667484 349.293747,143.555556 349.431818,143.555556 Z" id="Combined-Shape"></path>
        </g>
    </g>
</svg>